# xmcd
#
# Track frame offsets:
#	150
#	12449
#	20516
#	32813
#	41751
#	52068
#	63149
#	73179
#	82327
#	87889
#	99524
#	109704
#
# Disc length: 1598 seconds
#
# Revision: 0
# Processed by: cddbd v1.5.2PL0 Copyright (c) Steve Scherf et al.
# Submitted via: EasyCDDAExtractor 11.5.3.1
#
DISCID=a1063c0c
DTITLE=Johnny Cash - I WALK THE LINE CD2
DYEAR=2008
DGENRE=Country
TTITLE0=I Walk The Line
TTITLE1=The Wreck Of The Old '97
TTITLE2=Next In Line
TTITLE3=Remeber Me (I'm The One Who Loves You)
TTITLE4=You Win Again
TTITLE5=Cry! Cry! Cry!
TTITLE6=Hey Porter
TTITLE7=I Couldn't Keep From Crying
TTITLE8=My Treasure
TTITLE9=So Doggone Lonesome
TTITLE10=There You Go
TTITLE11=Train Of Love
EXTD=
EXTT0=
EXTT1=
EXTT2=
EXTT3=
EXTT4=
EXTT5=
EXTT6=
EXTT7=
EXTT8=
EXTT9=
EXTT10=
EXTT11=
PLAYORDER=
